# xmcd
#
# Track frame offsets: 
#        150
#        28410
#        56670
#        79280
#        100140
#        122190
#        145697
#        161295
#        185432
#        205120
#        231805
#        254867
#
# Disc length: 3740 seconds
#
# Revision: 2
# Processed by: cddbd v1.5.2PL0 Copyright (c) Steve Scherf et al.
# Submitted via: ExactAudioCopy v1.0b3
#
DISCID=aa0e9a0c
DTITLE=Le Thu, Si Phu, Thanh Hoang - Bai Tinh Ca Mua Dong
DYEAR=1989
DGENRE=
TTITLE0=Si Phu - Dan trong dem vang
TTITLE1=Le Thu - Muoi nam tinh cu
TTITLE2=Thanh Hoang - Hoai cam
TTITLE3=Le Thu - Neu dung dang do
TTITLE4=Si Phu - Noi long nguoi di
TTITLE5=Le Thu - Sau le bong
TTITLE6=Le Thu - Bai tinh ca mua dong
TTITLE7=Thanh Hoang - Tinh phu
TTITLE8=Le Thu - Xom dem
TTITLE9=Si Phu -  Chieu thu ay
TTITLE10=Le Thu - Do chieu
TTITLE11=Thanh Hoang - Muoi nam tinh cu
EXTD=
EXTT0=
EXTT1=
EXTT2=
EXTT3=
EXTT4=
EXTT5=
EXTT6=
EXTT7=
EXTT8=
EXTT9=
EXTT10=
EXTT11=
PLAYORDER=
